<svg width="19" height="19" viewBox="0 0 19 19" fill="none" xmlns="http://www.w3.org/2000/svg">
<path d="M18.7621 11.4662C18.6899 11.3941 18.5994 11.343 18.5003 11.3184C18.4012 11.2938 18.2972 11.2966 18.1996 11.3266C16.7371 11.7686 15.1821 11.8055 13.7002 11.4335C12.2183 11.0614 10.8652 10.2942 9.78495 9.21368C8.70473 8.13317 7.93791 6.77982 7.56622 5.29785C7.19453 3.81589 7.23189 2.26084 7.67433 0.798432C7.70388 0.700911 7.70639 0.597193 7.68158 0.498356C7.65678 0.39952 7.60559 0.309278 7.53349 0.237271C7.46138 0.165264 7.37107 0.114196 7.2722 0.0895225C7.17333 0.0648489 7.06962 0.0674965 6.97214 0.0971824C5.03297 0.692112 3.33073 1.88326 2.10745 3.50124C0.720758 5.34258 0.0458635 7.62285 0.206999 9.9223C0.368134 12.2217 1.35445 14.3856 2.9844 16.0155C4.61434 17.6455 6.7782 18.6318 9.07765 18.7929C11.3771 18.9541 13.6574 18.2792 15.4987 16.8925C17.1167 15.6692 18.3078 13.967 18.9028 12.0278C18.9324 11.9302 18.935 11.8265 18.9102 11.7275C18.8855 11.6286 18.8343 11.5383 18.7621 11.4662ZM14.8246 15.9934C13.1998 17.2121 11.1899 17.8037 9.16401 17.6597C7.13809 17.5157 5.23208 16.6458 3.79592 15.2096C2.35977 13.7735 1.48984 11.8675 1.34586 9.84156C1.20189 7.81563 1.79352 5.80576 3.01214 4.18093C3.88012 3.03008 5.02585 2.1182 6.34214 1.53062C6.06502 3.05276 6.16115 4.61941 6.62229 6.09625C7.08343 7.5731 7.89583 8.91609 8.98984 10.0101C10.0839 11.1041 11.4268 11.9165 12.9037 12.3777C14.3805 12.8388 15.9472 12.9349 17.4693 12.6578C16.8833 13.9758 15.9724 15.1235 14.8218 15.9934H14.8246Z" fill="#313234"/>
</svg>
