<svg width="19" height="19" viewBox="0 0 19 19" fill="none" xmlns="http://www.w3.org/2000/svg">
<path d="M18.7622 11.4662C18.6899 11.3941 18.5994 11.343 18.5003 11.3184C18.4012 11.2938 18.2973 11.2966 18.1997 11.3266C16.7372 11.7686 15.1821 11.8055 13.7002 11.4335C12.2184 11.0614 10.8652 10.2942 9.78501 9.21368C8.70478 8.13317 7.93797 6.77982 7.56628 5.29785C7.19458 3.81589 7.23195 2.26084 7.67438 0.798432C7.70393 0.700911 7.70644 0.597193 7.68164 0.498356C7.65683 0.39952 7.60564 0.309278 7.53354 0.237271C7.46144 0.165264 7.37113 0.114196 7.27226 0.0895225C7.17339 0.0648489 7.06967 0.0674965 6.97219 0.0971824C5.03303 0.692112 3.33078 1.88326 2.1075 3.50124C0.720812 5.34258 0.0459169 7.62285 0.207052 9.9223C0.368188 12.2217 1.35451 14.3856 2.98445 16.0155C4.61439 17.6455 6.77825 18.6318 9.0777 18.7929C11.3771 18.9541 13.6574 18.2792 15.4988 16.8925C17.1167 15.6692 18.3079 13.967 18.9028 12.0278C18.9325 11.9302 18.9351 11.8265 18.9103 11.7275C18.8855 11.6286 18.8343 11.5383 18.7622 11.4662ZM14.8247 15.9934C13.1999 17.2121 11.19 17.8037 9.16406 17.6597C7.13814 17.5157 5.23214 16.6458 3.79598 15.2096C2.35982 13.7735 1.4899 11.8675 1.34592 9.84156C1.20194 7.81563 1.79357 5.80576 3.01219 4.18093C3.88018 3.03008 5.0259 2.1182 6.34219 1.53062C6.06507 3.05276 6.1612 4.61941 6.62234 6.09625C7.08349 7.5731 7.89588 8.91609 8.98989 10.0101C10.0839 11.1041 11.4269 11.9165 12.9037 12.3777C14.3806 12.8388 15.9472 12.9349 17.4694 12.6578C16.8834 13.9758 15.9725 15.1235 14.8219 15.9934H14.8247Z" fill="white"/>
</svg>
