<svg width="16" height="16" viewBox="0 0 16 16" fill="none" xmlns="http://www.w3.org/2000/svg">
<path d="M15.3194 3.79244C14.8413 2.96807 13.5794 2.78244 11.6631 3.25119C10.776 2.56522 9.71422 2.1418 8.59847 2.02904C7.48272 1.91629 6.35772 2.11871 5.35125 2.61332C4.34479 3.10792 3.49722 3.87488 2.90482 4.82708C2.31242 5.77927 1.99894 6.87851 2 7.99994C2.00008 8.25717 2.01636 8.51414 2.04875 8.76932C0.318127 10.5624 0.343127 11.6249 0.681252 12.2074C1 12.7599 1.665 12.9999 2.54 12.9999C3.14752 12.9874 3.75145 12.9035 4.33938 12.7499C5.22663 13.4352 6.28826 13.8581 7.40372 13.9704C8.51919 14.0827 9.64379 13.88 10.6499 13.3853C11.6559 12.8907 12.5031 12.1238 13.0953 11.1719C13.6875 10.2199 14.0009 9.12104 14 7.99994C14.0001 7.74397 13.9841 7.48825 13.9519 7.23432C14.7331 6.42182 15.2531 5.64994 15.43 4.98932C15.5519 4.53182 15.515 4.12932 15.3194 3.79244ZM8 2.99994C9.13247 3.0011 10.2311 3.38615 11.1165 4.09221C12.0019 4.79827 12.6218 5.78364 12.875 6.88744C11.8088 7.89119 10.3656 8.92057 8.99563 9.70807C7.27375 10.6962 5.78 11.3124 4.58875 11.6499C3.85505 10.9656 3.34436 10.0763 3.12317 9.0977C2.90197 8.11909 2.98053 7.09657 3.3486 6.16323C3.71667 5.2299 4.35722 4.429 5.18683 3.8648C6.01645 3.3006 6.99671 2.99923 8 2.99994ZM1.54625 11.7056C1.455 11.5487 1.50563 11.2531 1.685 10.8931C1.86238 10.5558 2.07819 10.2401 2.32813 9.95244C2.57588 10.6703 2.95763 11.3345 3.45313 11.9099C2.375 12.0912 1.7025 11.9756 1.54625 11.7056ZM8 12.9999C7.15696 13.0008 6.32757 12.787 5.59 12.3787C6.94381 11.8999 8.25008 11.296 9.49188 10.5749C10.8406 9.80057 12.0344 8.96119 12.9963 8.13244C12.9606 9.43441 12.4188 10.6712 11.4859 11.5801C10.553 12.489 9.30246 12.9983 8 12.9999ZM14.4638 4.73057C14.3575 5.12494 14.0769 5.57619 13.6744 6.05119C13.4273 5.33252 13.0455 4.66753 12.5494 4.09182C13.4375 3.94494 14.26 3.95619 14.4556 4.29432C14.5119 4.39244 14.515 4.53932 14.4638 4.73057Z" fill="white"/>
</svg>
